<svg width="166" height="76" viewBox="0 0 166 76" fill="none" xmlns="http://www.w3.org/2000/svg">
<path fill-rule="evenodd" clip-rule="evenodd" d="M11.6698 12.2345L8 8.75445L8.73031 8L12.4031 11.4829C13.2832 12.3263 14.3356 12.9736 15.4895 13.3811C16.6434 13.7887 17.8721 13.947 19.093 13.8456L19.0949 13.8454L86.3167 8.50418L86.3282 8.50377C89.8917 8.37397 92.8889 8.28737 95.4719 8.24404L95.4808 8.24389C99.2298 8.24397 102.414 8.58248 105 11.0473C107.274 13.1636 108.028 15.1333 108.332 16.8516C108.443 17.4772 108.495 18.0779 108.541 18.6119C108.556 18.7909 108.571 18.9623 108.587 19.1247C108.654 19.7931 108.743 20.3164 108.954 20.75C109.293 21.4062 109.743 21.9997 110.285 22.5042L110.289 22.508L147.262 57.645C147.336 57.7164 147.425 57.7711 147.522 57.8054C148.793 58.2132 149.793 58.2285 150.762 58.2434C151.057 58.2479 151.348 58.2523 151.644 58.2677C152.271 58.3004 152.905 58.3866 153.555 58.6622C154.207 58.9388 154.843 59.3915 155.501 60.112L155.513 60.1255L155.524 60.1398C157.294 62.3707 158.166 65.1706 157.974 68L156.921 67.9299C157.095 65.364 156.306 62.8249 154.705 60.7993C154.134 60.1769 153.623 59.8278 153.139 59.6227C152.65 59.4153 152.155 59.3406 151.588 59.3111C151.348 59.2986 151.092 59.295 150.821 59.2912C149.831 59.2773 148.63 59.2604 147.189 58.7971L147.179 58.7936C146.934 58.7091 146.711 58.5726 146.526 58.3939C146.526 58.3937 146.526 58.3941 146.526 58.3939L109.562 23.2656C109.561 23.2648 109.561 23.2641 109.56 23.2634C108.928 22.6754 108.404 21.9839 108.011 21.2192L108.007 21.2101C107.706 20.596 107.605 19.9097 107.537 19.227C107.518 19.0397 107.502 18.8525 107.486 18.6639C107.441 18.1412 107.395 17.6079 107.293 17.032C107.023 15.5132 106.368 13.7541 104.275 11.8064L104.27 11.8019C102.006 9.64275 99.2056 9.2891 95.4853 9.28881C92.9155 9.33195 89.9309 9.41814 86.3784 9.54748L19.1813 14.8868C19.181 14.8868 19.1816 14.8867 19.1813 14.8868C17.8106 15.0005 16.4302 14.8227 15.1347 14.3652C13.8393 13.9077 12.6579 13.1812 11.6698 12.2345Z" fill="#EB5757"/>
<path fill-rule="evenodd" clip-rule="evenodd" d="M94.9355 25.6128C93.9597 25.6128 93.1689 26.3954 93.1689 27.3606C93.1689 28.3257 93.9597 29.1084 94.9355 29.1084C95.9112 29.1084 96.7019 28.3257 96.7019 27.3606C96.7019 26.3954 95.9112 25.6128 94.9355 25.6128ZM92.1133 27.3606C92.1133 25.8181 93.377 24.5679 94.9355 24.5679C96.4939 24.5679 97.7575 25.8181 97.7575 27.3606C97.7575 28.903 96.4939 30.1532 94.9355 30.1532C93.377 30.1532 92.1133 28.9031 92.1133 27.3606Z" fill="#EB5757"/>
<path fill-rule="evenodd" clip-rule="evenodd" d="M96.0056 37.6554C95.0299 37.6554 94.2392 38.438 94.2392 39.4032C94.2392 40.3683 95.0299 41.151 96.0056 41.151C96.9812 41.151 97.772 40.3683 97.772 39.4032C97.772 38.438 96.9812 37.6554 96.0056 37.6554ZM93.1836 39.4032C93.1836 37.8607 94.4471 36.6105 96.0056 36.6105C97.5641 36.6105 98.8276 37.8607 98.8276 39.4032C98.8276 40.9456 97.5641 42.1958 96.0056 42.1958C94.4471 42.1958 93.1836 40.9456 93.1836 39.4032Z" fill="#EB5757"/>
<path fill-rule="evenodd" clip-rule="evenodd" d="M84.6854 32.6612C83.7097 32.6612 82.9189 33.4438 82.9189 34.409C82.9189 35.3741 83.7097 36.1568 84.6854 36.1568C85.6611 36.1568 86.4518 35.3741 86.4518 34.409C86.4518 33.4438 85.6611 32.6612 84.6854 32.6612ZM81.8633 34.409C81.8633 32.8665 83.127 31.6163 84.6854 31.6163C86.2439 31.6163 87.5074 32.8665 87.5074 34.409C87.5074 35.9514 86.2439 37.2016 84.6854 37.2016C83.127 37.2016 81.8633 35.9514 81.8633 34.409Z" fill="#EB5757"/>
<g filter="url(#filter0_f_741_2420)">
<path fill-rule="evenodd" clip-rule="evenodd" d="M11.6698 12.1911L8 8.74674L8.73031 8L12.4031 11.4472C13.2832 12.2821 14.3356 12.9227 15.4895 13.3261C16.6434 13.7294 17.8721 13.8862 19.093 13.7858L19.0949 13.7856L86.3167 8.49902L86.3282 8.49861C89.8917 8.37014 92.8889 8.28443 95.4719 8.24155L95.4808 8.2414C99.2298 8.24147 102.414 8.57652 105 11.0162C107.274 13.1108 108.028 15.0603 108.332 16.761C108.443 17.3802 108.495 17.9748 108.541 18.5033C108.556 18.6805 108.571 18.8502 108.587 19.0109C108.654 19.6725 108.743 20.1904 108.954 20.6196C109.293 21.2691 109.743 21.8565 110.285 22.3558L110.289 22.3596L147.262 57.1371C147.336 57.2078 147.425 57.2619 147.522 57.2958C148.793 57.6995 149.793 57.7147 150.762 57.7294C151.057 57.7338 151.348 57.7382 151.644 57.7535C152.271 57.7858 152.905 57.8711 153.555 58.1439C154.207 58.4177 154.843 58.8657 155.501 59.5788L155.513 59.5922L155.524 59.6064C157.294 61.8145 158.166 64.5857 157.974 67.3862L156.921 67.3168C157.095 64.7772 156.306 62.264 154.705 60.2591C154.134 59.6431 153.623 59.2975 153.139 59.0946C152.65 58.8893 152.155 58.8154 151.588 58.7862C151.348 58.7738 151.092 58.7702 150.821 58.7665C149.831 58.7527 148.63 58.736 147.189 58.2774L147.179 58.274C146.934 58.1903 146.711 58.0552 146.526 57.8783C146.526 57.8781 146.526 57.8785 146.526 57.8783L109.562 23.1094C109.561 23.1087 109.561 23.108 109.56 23.1072C108.928 22.5253 108.404 21.8408 108.011 21.084L108.007 21.075C107.706 20.4671 107.605 19.7879 107.537 19.1121C107.518 18.9268 107.502 18.7415 107.486 18.5548C107.441 18.0375 107.395 17.5096 107.293 16.9396C107.023 15.4363 106.368 13.6952 104.275 11.7675L104.27 11.763C102.006 9.62595 99.2056 9.27591 95.4853 9.27563C92.9155 9.31833 89.9309 9.40363 86.3784 9.53165L19.1813 14.8163C19.181 14.8163 19.1816 14.8163 19.1813 14.8163C17.8106 14.9289 16.4302 14.7529 15.1347 14.3001C13.8393 13.8473 12.6579 13.1282 11.6698 12.1911Z" fill="#EB5757"/>
<path fill-rule="evenodd" clip-rule="evenodd" d="M94.9355 25.4326C93.9597 25.4326 93.1689 26.2073 93.1689 27.1625C93.1689 28.1178 93.9597 28.8924 94.9355 28.8924C95.9112 28.8924 96.7019 28.1178 96.7019 27.1625C96.7019 26.2072 95.9112 25.4326 94.9355 25.4326ZM92.1133 27.1625C92.1133 25.6358 93.377 24.3984 94.9355 24.3984C96.4939 24.3984 97.7575 25.6358 97.7575 27.1625C97.7575 28.6892 96.4939 29.9266 94.9355 29.9266C93.377 29.9266 92.1133 28.6892 92.1133 27.1625Z" fill="#EB5757"/>
<path fill-rule="evenodd" clip-rule="evenodd" d="M96.0056 37.352C95.0299 37.352 94.2392 38.1266 94.2392 39.0819C94.2392 40.0372 95.0299 40.8118 96.0056 40.8118C96.9812 40.8118 97.772 40.0372 97.772 39.0819C97.772 38.1266 96.9812 37.352 96.0056 37.352ZM93.1836 39.0819C93.1836 37.5552 94.4471 36.3178 96.0056 36.3178C97.5641 36.3178 98.8276 37.5552 98.8276 39.0819C98.8276 40.6085 97.5641 41.8459 96.0056 41.8459C94.4471 41.8459 93.1836 40.6085 93.1836 39.0819Z" fill="#EB5757"/>
<path fill-rule="evenodd" clip-rule="evenodd" d="M84.6854 32.4089C83.7097 32.4089 82.9189 33.1836 82.9189 34.1388C82.9189 35.0941 83.7097 35.8687 84.6854 35.8687C85.6611 35.8687 86.4518 35.0941 86.4518 34.1388C86.4518 33.1835 85.6611 32.4089 84.6854 32.4089ZM81.8633 34.1388C81.8633 32.6121 83.127 31.3748 84.6854 31.3748C86.2439 31.3748 87.5074 32.6122 87.5074 34.1388C87.5074 35.6655 86.2439 36.9029 84.6854 36.9029C83.127 36.9029 81.8633 35.6655 81.8633 34.1388Z" fill="#EB5757"/>
</g>
<defs>
<filter id="filter0_f_741_2420" x="0" y="0" width="166" height="75.3862" filterUnits="userSpaceOnUse" color-interpolation-filters="sRGB">
<feFlood flood-opacity="0" result="BackgroundImageFix"/>
<feBlend mode="normal" in="SourceGraphic" in2="BackgroundImageFix" result="shape"/>
<feGaussianBlur stdDeviation="4" result="effect1_foregroundBlur_741_2420"/>
</filter>
</defs>
</svg>
