<svg width="152" height="51" viewBox="0 0 152 51" fill="none" xmlns="http://www.w3.org/2000/svg">
<rect x="0.5" y="0.5" width="151" height="50" rx="21.5" stroke="white"/>
<circle cx="142.367" cy="26" r="1.5" transform="rotate(90 142.367 26)" stroke="white"/>
<circle cx="137.156" cy="23" r="1.5" transform="rotate(90 137.156 23)" stroke="white"/>
<circle cx="137" cy="29.6846" r="1.5" transform="rotate(90 137 29.6846)" stroke="white"/>
<circle cx="9" cy="26.6846" r="1.5" transform="rotate(-90 9 26.6846)" stroke="white"/>
<circle cx="14.21" cy="29.6846" r="1.5" transform="rotate(-90 14.21 29.6846)" stroke="white"/>
<circle cx="14.3667" cy="23" r="1.5" transform="rotate(-90 14.3667 23)" stroke="white"/>
<path fill-rule="evenodd" clip-rule="evenodd" d="M88.852 28.6702C91.077 27.5685 91.077 24.3951 88.852 23.2934L66.9868 12.4659C67.8403 11.9285 68.9588 11.8141 69.9752 12.345L90.879 23.2644C93.027 24.3865 93.027 27.4605 90.879 28.5826L69.9752 39.502C69.0005 40.0112 67.9319 39.9268 67.0931 39.4451L88.852 28.6702Z" fill="#C4C4C4"/>
<path fill-rule="evenodd" clip-rule="evenodd" d="M85.2928 28.5826C87.4408 27.4605 87.4408 24.3865 85.2928 23.2644L64.389 12.345C62.3917 11.3016 60 12.7506 60 15.0041L60 36.843C60 39.0964 62.3917 40.5454 64.389 39.502L85.2928 28.5826ZM81.012 28.6615C83.2259 27.5567 83.2259 24.3977 81.012 23.2929L65.5908 15.5974C63.5962 14.602 61.2513 16.0526 61.2513 18.2817L61.2513 33.6727C61.2513 35.9018 63.5962 37.3523 65.5908 36.357L81.012 28.6615Z" fill="#C4C4C4"/>
</svg>
