<svg width="518" height="16" viewBox="0 0 518 16" fill="none" xmlns="http://www.w3.org/2000/svg">
<mask id="path-1-inside-1_110_3619" fill="white">
<path d="M40 8.5L0 8.5L8.75085e-08 7.5L40 7.5L40 8.5Z"/>
</mask>
<path d="M40 8.5L40 9.5L41 9.5L41 8.5L40 8.5ZM0 8.5L-1 8.5L-1 9.5L-8.75085e-08 9.5L0 8.5ZM8.75085e-08 7.5L1.75017e-07 6.5L-1 6.5L-1 7.5L8.75085e-08 7.5ZM40 7.5L41 7.5L41 6.5L40 6.5L40 7.5ZM40 7.5L8.75085e-08 7.5L-8.75085e-08 9.5L40 9.5L40 7.5ZM1 8.5L1 7.5L-1 7.5L-1 8.5L1 8.5ZM0 8.5L40 8.5L40 6.5L1.75017e-07 6.5L0 8.5ZM39 7.5L39 8.5L41 8.5L41 7.5L39 7.5Z" fill="url(#paint0_linear_110_3619)" mask="url(#path-1-inside-1_110_3619)"/>
<path d="M149.015 13V3.54545H152.745C153.462 3.54545 154.073 3.68241 154.578 3.95632C155.083 4.22715 155.467 4.60417 155.732 5.08736C156 5.56747 156.134 6.12145 156.134 6.74929C156.134 7.37713 155.998 7.93111 155.727 8.41122C155.457 8.89133 155.064 9.26527 154.55 9.53303C154.039 9.80078 153.421 9.93466 152.694 9.93466H150.317V8.33274H152.371C152.756 8.33274 153.073 8.26657 153.322 8.13423C153.575 7.99882 153.762 7.81262 153.885 7.57564C154.012 7.33558 154.075 7.06013 154.075 6.74929C154.075 6.43537 154.012 6.16146 153.885 5.92756C153.762 5.69058 153.575 5.50746 153.322 5.3782C153.07 5.24586 152.75 5.17969 152.362 5.17969H151.014V13H149.015ZM160.812 13V3.54545H164.542C165.256 3.54545 165.866 3.67318 166.37 3.92862C166.878 4.18099 167.264 4.53954 167.529 5.00426C167.797 5.46591 167.931 6.00911 167.931 6.63388C167.931 7.26172 167.795 7.80185 167.524 8.25426C167.254 8.7036 166.861 9.0483 166.347 9.28835C165.836 9.52841 165.218 9.64844 164.491 9.64844H161.994V8.0419H164.168C164.55 8.0419 164.867 7.98958 165.119 7.88494C165.372 7.7803 165.559 7.62334 165.682 7.41406C165.809 7.20478 165.872 6.94472 165.872 6.63388C165.872 6.31996 165.809 6.05528 165.682 5.83984C165.559 5.62441 165.37 5.46129 165.115 5.3505C164.862 5.23662 164.544 5.17969 164.159 5.17969H162.811V13H160.812ZM165.918 8.69744L168.268 13H166.061L163.762 8.69744H165.918ZM181.411 8.27273C181.411 9.30374 181.216 10.1809 180.825 10.9041C180.437 11.6274 179.908 12.1798 179.237 12.5614C178.569 12.94 177.818 13.1293 176.984 13.1293C176.144 13.1293 175.39 12.9384 174.722 12.5568C174.054 12.1752 173.527 11.6228 173.139 10.8995C172.751 10.1763 172.557 9.30066 172.557 8.27273C172.557 7.24171 172.751 6.36458 173.139 5.64134C173.527 4.91809 174.054 4.36719 174.722 3.98864C175.39 3.60701 176.144 3.41619 176.984 3.41619C177.818 3.41619 178.569 3.60701 179.237 3.98864C179.908 4.36719 180.437 4.91809 180.825 5.64134C181.216 6.36458 181.411 7.24171 181.411 8.27273ZM179.385 8.27273C179.385 7.60488 179.285 7.04167 179.085 6.5831C178.888 6.12453 178.609 5.77675 178.249 5.53977C177.889 5.30279 177.467 5.1843 176.984 5.1843C176.501 5.1843 176.079 5.30279 175.719 5.53977C175.359 5.77675 175.079 6.12453 174.879 6.5831C174.682 7.04167 174.584 7.60488 174.584 8.27273C174.584 8.94058 174.682 9.50379 174.879 9.96236C175.079 10.4209 175.359 10.7687 175.719 11.0057C176.079 11.2427 176.501 11.3612 176.984 11.3612C177.467 11.3612 177.889 11.2427 178.249 11.0057C178.609 10.7687 178.888 10.4209 179.085 9.96236C179.285 9.50379 179.385 8.94058 179.385 8.27273ZM186.272 13V3.54545H192.532V5.19354H188.271V7.44638H192.117V9.09446H188.271V13H186.272ZM197.257 13V3.54545H200.987C201.701 3.54545 202.31 3.67318 202.815 3.92862C203.323 4.18099 203.709 4.53954 203.974 5.00426C204.241 5.46591 204.375 6.00911 204.375 6.63388C204.375 7.26172 204.24 7.80185 203.969 8.25426C203.698 8.7036 203.306 9.0483 202.792 9.28835C202.281 9.52841 201.662 9.64844 200.936 9.64844H198.439V8.0419H200.613C200.995 8.0419 201.312 7.98958 201.564 7.88494C201.816 7.7803 202.004 7.62334 202.127 7.41406C202.253 7.20478 202.316 6.94472 202.316 6.63388C202.316 6.31996 202.253 6.05528 202.127 5.83984C202.004 5.62441 201.815 5.46129 201.559 5.3505C201.307 5.23662 200.988 5.17969 200.604 5.17969H199.256V13H197.257ZM202.363 8.69744L204.712 13H202.506L200.207 8.69744H202.363ZM209.168 13V3.54545H215.539V5.19354H211.167V7.44638H215.211V9.09446H211.167V11.3519H215.557V13H209.168ZM225.637 6.26456C225.6 5.89216 225.441 5.60286 225.161 5.39666C224.881 5.19046 224.501 5.08736 224.021 5.08736C223.695 5.08736 223.419 5.13352 223.195 5.22585C222.97 5.3151 222.798 5.43975 222.678 5.59979C222.561 5.75982 222.502 5.94141 222.502 6.14453C222.496 6.3138 222.531 6.46153 222.608 6.58771C222.688 6.7139 222.798 6.82315 222.936 6.91548C223.075 7.00473 223.235 7.08321 223.416 7.15092C223.598 7.21555 223.792 7.27095 223.998 7.31712L224.847 7.52024C225.26 7.61257 225.638 7.73568 225.983 7.88956C226.328 8.04344 226.626 8.23272 226.879 8.45739C227.131 8.68205 227.326 8.94673 227.465 9.25142C227.607 9.55611 227.679 9.90542 227.682 10.2994C227.679 10.878 227.531 11.3796 227.239 11.8043C226.949 12.226 226.531 12.5537 225.983 12.7876C225.438 13.0185 224.781 13.1339 224.012 13.1339C223.249 13.1339 222.584 13.0169 222.017 12.783C221.454 12.5491 221.014 12.2029 220.697 11.7443C220.383 11.2827 220.219 10.7118 220.203 10.0316H222.138C222.159 10.3486 222.25 10.6133 222.41 10.8256C222.573 11.0349 222.79 11.1934 223.061 11.3011C223.335 11.4058 223.644 11.4581 223.989 11.4581C224.327 11.4581 224.621 11.4089 224.87 11.3104C225.123 11.2119 225.318 11.0749 225.457 10.8995C225.595 10.7241 225.665 10.5225 225.665 10.2947C225.665 10.0824 225.601 9.90388 225.475 9.75923C225.352 9.61458 225.171 9.49148 224.93 9.38991C224.694 9.28835 224.403 9.19602 224.058 9.11293L223.029 8.8544C222.231 8.66051 221.602 8.35736 221.14 7.94496C220.679 7.53255 220.449 6.97704 220.453 6.27841C220.449 5.70597 220.602 5.20585 220.91 4.77805C221.22 4.35026 221.647 4.01634 222.188 3.77628C222.73 3.53622 223.346 3.41619 224.035 3.41619C224.737 3.41619 225.349 3.53622 225.872 3.77628C226.399 4.01634 226.808 4.35026 227.1 4.77805C227.393 5.20585 227.543 5.70135 227.553 6.26456H225.637ZM237.535 6.26456C237.498 5.89216 237.34 5.60286 237.06 5.39666C236.78 5.19046 236.4 5.08736 235.92 5.08736C235.593 5.08736 235.318 5.13352 235.093 5.22585C234.869 5.3151 234.696 5.43975 234.576 5.59979C234.459 5.75982 234.401 5.94141 234.401 6.14453C234.395 6.3138 234.43 6.46153 234.507 6.58771C234.587 6.7139 234.696 6.82315 234.835 6.91548C234.973 7.00473 235.133 7.08321 235.315 7.15092C235.496 7.21555 235.69 7.27095 235.897 7.31712L236.746 7.52024C237.158 7.61257 237.537 7.73568 237.882 7.88956C238.226 8.04344 238.525 8.23272 238.777 8.45739C239.03 8.68205 239.225 8.94673 239.363 9.25142C239.505 9.55611 239.577 9.90542 239.58 10.2994C239.577 10.878 239.43 11.3796 239.137 11.8043C238.848 12.226 238.429 12.5537 237.882 12.7876C237.337 13.0185 236.68 13.1339 235.91 13.1339C235.147 13.1339 234.482 13.0169 233.916 12.783C233.353 12.5491 232.913 12.2029 232.596 11.7443C232.282 11.2827 232.117 10.7118 232.102 10.0316H234.036C234.058 10.3486 234.148 10.6133 234.308 10.8256C234.472 11.0349 234.689 11.1934 234.959 11.3011C235.233 11.4058 235.543 11.4581 235.887 11.4581C236.226 11.4581 236.52 11.4089 236.769 11.3104C237.021 11.2119 237.217 11.0749 237.355 10.8995C237.494 10.7241 237.563 10.5225 237.563 10.2947C237.563 10.0824 237.5 9.90388 237.374 9.75923C237.251 9.61458 237.069 9.49148 236.829 9.38991C236.592 9.28835 236.301 9.19602 235.957 9.11293L234.927 8.8544C234.13 8.66051 233.501 8.35736 233.039 7.94496C232.577 7.53255 232.348 6.97704 232.351 6.27841C232.348 5.70597 232.5 5.20585 232.808 4.77805C233.119 4.35026 233.545 4.01634 234.087 3.77628C234.629 3.53622 235.244 3.41619 235.933 3.41619C236.635 3.41619 237.248 3.53622 237.771 3.77628C238.297 4.01634 238.706 4.35026 238.999 4.77805C239.291 5.20585 239.442 5.70135 239.451 6.26456H237.535ZM246.304 3.54545V13H244.305V3.54545H246.304ZM260.017 8.27273C260.017 9.30374 259.821 10.1809 259.43 10.9041C259.043 11.6274 258.513 12.1798 257.842 12.5614C257.175 12.94 256.424 13.1293 255.59 13.1293C254.749 13.1293 253.995 12.9384 253.328 12.5568C252.66 12.1752 252.132 11.6228 251.744 10.8995C251.356 10.1763 251.162 9.30066 251.162 8.27273C251.162 7.24171 251.356 6.36458 251.744 5.64134C252.132 4.91809 252.66 4.36719 253.328 3.98864C253.995 3.60701 254.749 3.41619 255.59 3.41619C256.424 3.41619 257.175 3.60701 257.842 3.98864C258.513 4.36719 259.043 4.91809 259.43 5.64134C259.821 6.36458 260.017 7.24171 260.017 8.27273ZM257.99 8.27273C257.99 7.60488 257.89 7.04167 257.69 6.5831C257.493 6.12453 257.215 5.77675 256.854 5.53977C256.494 5.30279 256.073 5.1843 255.59 5.1843C255.106 5.1843 254.685 5.30279 254.325 5.53977C253.965 5.77675 253.685 6.12453 253.484 6.5831C253.287 7.04167 253.189 7.60488 253.189 8.27273C253.189 8.94058 253.287 9.50379 253.484 9.96236C253.685 10.4209 253.965 10.7687 254.325 11.0057C254.685 11.2427 255.106 11.3612 255.59 11.3612C256.073 11.3612 256.494 11.2427 256.854 11.0057C257.215 10.7687 257.493 10.4209 257.69 9.96236C257.89 9.50379 257.99 8.94058 257.99 8.27273ZM272.786 3.54545V13H271.059L266.946 7.04936H266.876V13H264.878V3.54545H266.632L270.713 9.49148H270.796V3.54545H272.786ZM279.447 13H277.305L280.569 3.54545H283.145L286.404 13H284.262L281.893 5.70597H281.82L279.447 13ZM279.313 9.28374H284.372V10.8441H279.313V9.28374ZM290.922 13V3.54545H292.921V11.3519H296.974V13H290.922ZM310.195 13L307.489 3.54545H309.673L311.238 10.1147H311.316L313.043 3.54545H314.913L316.635 10.1286H316.718L318.283 3.54545H320.466L317.761 13H315.813L314.012 6.81854H313.939L312.143 13H310.195ZM333.071 8.27273C333.071 9.30374 332.876 10.1809 332.485 10.9041C332.097 11.6274 331.568 12.1798 330.897 12.5614C330.229 12.94 329.478 13.1293 328.644 13.1293C327.804 13.1293 327.05 12.9384 326.382 12.5568C325.714 12.1752 325.186 11.6228 324.798 10.8995C324.411 10.1763 324.217 9.30066 324.217 8.27273C324.217 7.24171 324.411 6.36458 324.798 5.64134C325.186 4.91809 325.714 4.36719 326.382 3.98864C327.05 3.60701 327.804 3.41619 328.644 3.41619C329.478 3.41619 330.229 3.60701 330.897 3.98864C331.568 4.36719 332.097 4.91809 332.485 5.64134C332.876 6.36458 333.071 7.24171 333.071 8.27273ZM331.045 8.27273C331.045 7.60488 330.945 7.04167 330.744 6.5831C330.548 6.12453 330.269 5.77675 329.909 5.53977C329.549 5.30279 329.127 5.1843 328.644 5.1843C328.161 5.1843 327.739 5.30279 327.379 5.53977C327.019 5.77675 326.739 6.12453 326.539 6.5831C326.342 7.04167 326.243 7.60488 326.243 8.27273C326.243 8.94058 326.342 9.50379 326.539 9.96236C326.739 10.4209 327.019 10.7687 327.379 11.0057C327.739 11.2427 328.161 11.3612 328.644 11.3612C329.127 11.3612 329.549 11.2427 329.909 11.0057C330.269 10.7687 330.548 10.4209 330.744 9.96236C330.945 9.50379 331.045 8.94058 331.045 8.27273ZM337.932 13V3.54545H341.662C342.376 3.54545 342.985 3.67318 343.49 3.92862C343.998 4.18099 344.384 4.53954 344.649 5.00426C344.917 5.46591 345.051 6.00911 345.051 6.63388C345.051 7.26172 344.915 7.80185 344.644 8.25426C344.373 8.7036 343.981 9.0483 343.467 9.28835C342.956 9.52841 342.338 9.64844 341.611 9.64844H339.114V8.0419H341.288C341.67 8.0419 341.987 7.98958 342.239 7.88494C342.491 7.7803 342.679 7.62334 342.802 7.41406C342.928 7.20478 342.992 6.94472 342.992 6.63388C342.992 6.31996 342.928 6.05528 342.802 5.83984C342.679 5.62441 342.49 5.46129 342.234 5.3505C341.982 5.23662 341.664 5.17969 341.279 5.17969H339.931V13H337.932ZM343.038 8.69744L345.388 13H343.181L340.882 8.69744H343.038ZM349.843 13V3.54545H351.842V7.71413H351.967L355.369 3.54545H357.765L354.257 7.77876L357.807 13H355.415L352.825 9.11293L351.842 10.3132V13H349.843ZM367.239 6.26456C367.202 5.89216 367.043 5.60286 366.763 5.39666C366.483 5.19046 366.103 5.08736 365.623 5.08736C365.297 5.08736 365.021 5.13352 364.797 5.22585C364.572 5.3151 364.4 5.43975 364.28 5.59979C364.163 5.75982 364.104 5.94141 364.104 6.14453C364.098 6.3138 364.133 6.46153 364.21 6.58771C364.29 6.7139 364.4 6.82315 364.538 6.91548C364.677 7.00473 364.837 7.08321 365.018 7.15092C365.2 7.21555 365.394 7.27095 365.6 7.31712L366.449 7.52024C366.862 7.61257 367.24 7.73568 367.585 7.88956C367.93 8.04344 368.228 8.23272 368.481 8.45739C368.733 8.68205 368.928 8.94673 369.067 9.25142C369.208 9.55611 369.281 9.90542 369.284 10.2994C369.281 10.878 369.133 11.3796 368.841 11.8043C368.551 12.226 368.133 12.5537 367.585 12.7876C367.04 13.0185 366.383 13.1339 365.614 13.1339C364.851 13.1339 364.186 13.0169 363.619 12.783C363.056 12.5491 362.616 12.2029 362.299 11.7443C361.985 11.2827 361.821 10.7118 361.805 10.0316H363.74C363.761 10.3486 363.852 10.6133 364.012 10.8256C364.175 11.0349 364.392 11.1934 364.663 11.3011C364.937 11.4058 365.246 11.4581 365.591 11.4581C365.929 11.4581 366.223 11.4089 366.472 11.3104C366.725 11.2119 366.92 11.0749 367.059 10.8995C367.197 10.7241 367.267 10.5225 367.267 10.2947C367.267 10.0824 367.203 9.90388 367.077 9.75923C366.954 9.61458 366.773 9.49148 366.532 9.38991C366.296 9.28835 366.005 9.19602 365.66 9.11293L364.63 8.8544C363.833 8.66051 363.204 8.35736 362.742 7.94496C362.281 7.53255 362.051 6.97704 362.054 6.27841C362.051 5.70597 362.204 5.20585 362.512 4.77805C362.822 4.35026 363.249 4.01634 363.79 3.77628C364.332 3.53622 364.947 3.41619 365.637 3.41619C366.339 3.41619 366.951 3.53622 367.474 3.77628C368.001 4.01634 368.41 4.35026 368.702 4.77805C368.995 5.20585 369.145 5.70135 369.155 6.26456H367.239Z" fill="white"/>
<mask id="path-4-inside-2_110_3619" fill="white">
<path d="M478 7.5H518V8.5H478V7.5Z"/>
</mask>
<path d="M478 7.5V6.5H477V7.5H478ZM518 7.5H519V6.5H518V7.5ZM518 8.5V9.5H519V8.5H518ZM478 8.5H477V9.5H478V8.5ZM478 8.5H518V6.5H478V8.5ZM517 7.5V8.5H519V7.5H517ZM518 7.5H478V9.5H518V7.5ZM479 8.5V7.5H477V8.5H479Z" fill="url(#paint1_linear_110_3619)" mask="url(#path-4-inside-2_110_3619)"/>
<defs>
<linearGradient id="paint0_linear_110_3619" x1="40" y1="8.5" x2="13" y2="8.5" gradientUnits="userSpaceOnUse">
<stop stop-color="white"/>
<stop offset="1" stop-color="white" stop-opacity="0"/>
</linearGradient>
<linearGradient id="paint1_linear_110_3619" x1="478" y1="7.5" x2="505" y2="7.5" gradientUnits="userSpaceOnUse">
<stop stop-color="white"/>
<stop offset="1" stop-color="white" stop-opacity="0"/>
</linearGradient>
</defs>
</svg>
