<svg width="166" height="76" viewBox="0 0 166 76" fill="none" xmlns="http://www.w3.org/2000/svg">
<path fill-rule="evenodd" clip-rule="evenodd" d="M154.33 12.2345L158 8.75445L157.27 8L153.597 11.4829C152.717 12.3263 151.664 12.9736 150.511 13.3811C149.357 13.7887 148.128 13.947 146.907 13.8456L146.905 13.8454L79.6833 8.50418L79.6718 8.50377C76.1083 8.37397 73.1111 8.28737 70.5281 8.24404L70.5192 8.24389C66.7702 8.24397 63.5859 8.58248 61.0001 11.0473C58.7259 13.1636 57.9721 15.1333 57.6677 16.8516C57.5569 17.4772 57.5051 18.0779 57.4591 18.6119C57.4437 18.7909 57.4289 18.9623 57.4127 19.1247C57.3463 19.7931 57.2568 20.3164 57.0456 20.75C56.7074 21.4062 56.2572 21.9997 55.7149 22.5042L55.7108 22.508L18.7378 57.645C18.6638 57.7164 18.5753 57.7711 18.4782 57.8054C17.207 58.2132 16.2071 58.2285 15.2375 58.2434C14.9432 58.2479 14.6517 58.2523 14.3563 58.2677C13.7294 58.3004 13.0952 58.3866 12.4449 58.6622C11.7925 58.9388 11.1575 59.3915 10.4993 60.112L10.4869 60.1255L10.4755 60.1398C8.70639 62.3707 7.83391 65.1706 8.02616 68L9.07942 67.9299C8.90508 65.364 9.69403 62.8249 11.2946 60.7993C11.8659 60.1769 12.3768 59.8278 12.8605 59.6227C13.3499 59.4153 13.8451 59.3406 14.4117 59.3111C14.6521 59.2986 14.9077 59.295 15.1792 59.2912C16.1691 59.2773 17.3699 59.2604 18.8106 58.7971L18.8215 58.7936C19.066 58.7091 19.2886 58.5726 19.474 58.3939C19.4742 58.3937 19.4738 58.3941 19.474 58.3939L56.4379 23.2656C56.4387 23.2648 56.4394 23.2641 56.4402 23.2634C57.0717 22.6754 57.5955 21.9839 57.9888 21.2192L57.9935 21.2101C58.2942 20.596 58.3954 19.9097 58.4633 19.227C58.4819 19.0397 58.4981 18.8525 58.5144 18.6639C58.5595 18.1412 58.6055 17.6079 58.7075 17.032C58.9765 15.5132 59.6316 13.7541 61.7255 11.8064L61.7303 11.8019C63.9939 9.64275 66.7944 9.2891 70.5147 9.28881C73.0845 9.33195 76.0691 9.41814 79.6216 9.54748L146.819 14.8868C146.819 14.8868 146.818 14.8867 146.819 14.8868C148.189 15.0005 149.57 14.8227 150.865 14.3652C152.161 13.9077 153.342 13.1812 154.33 12.2345Z" fill="#EB5757"/>
<path fill-rule="evenodd" clip-rule="evenodd" d="M71.0645 25.6128C72.0403 25.6128 72.8311 26.3955 72.8311 27.3606C72.8311 28.3258 72.0403 29.1084 71.0645 29.1084C70.0888 29.1084 69.2981 28.3258 69.2981 27.3606C69.2981 26.3955 70.0888 25.6128 71.0645 25.6128ZM73.8867 27.3606C73.8867 25.8181 72.623 24.568 71.0645 24.568C69.5061 24.568 68.2425 25.8182 68.2425 27.3606C68.2425 28.9031 69.5061 30.1533 71.0645 30.1533C72.623 30.1533 73.8867 28.9031 73.8867 27.3606Z" fill="#EB5757"/>
<path fill-rule="evenodd" clip-rule="evenodd" d="M69.9944 37.6554C70.9701 37.6554 71.7608 38.438 71.7608 39.4032C71.7608 40.3683 70.9701 41.151 69.9944 41.151C69.0188 41.151 68.228 40.3683 68.228 39.4032C68.228 38.438 69.0188 37.6554 69.9944 37.6554ZM72.8164 39.4032C72.8164 37.8607 71.5529 36.6105 69.9944 36.6105C68.4359 36.6105 67.1724 37.8607 67.1724 39.4032C67.1724 40.9456 68.4359 42.1958 69.9944 42.1958C71.5529 42.1958 72.8164 40.9456 72.8164 39.4032Z" fill="#EB5757"/>
<path fill-rule="evenodd" clip-rule="evenodd" d="M81.3126 32.6612C82.2883 32.6612 83.0791 33.4438 83.0791 34.409C83.0791 35.3741 82.2883 36.1568 81.3126 36.1568C80.337 36.1568 79.5462 35.3741 79.5462 34.409C79.5462 33.4438 80.337 32.6612 81.3126 32.6612ZM84.1348 34.409C84.1348 32.8665 82.871 31.6163 81.3126 31.6163C79.7542 31.6163 78.4906 32.8665 78.4906 34.409C78.4906 35.9514 79.7542 37.2016 81.3126 37.2016C82.871 37.2016 84.1348 35.9514 84.1348 34.409Z" fill="#EB5757"/>
<g filter="url(#filter0_f_741_2422)">
<path fill-rule="evenodd" clip-rule="evenodd" d="M154.33 12.2345L158 8.75445L157.27 8L153.597 11.4829C152.717 12.3263 151.664 12.9736 150.511 13.3811C149.357 13.7887 148.128 13.947 146.907 13.8456L146.905 13.8454L79.6833 8.50418L79.6718 8.50377C76.1083 8.37397 73.1111 8.28737 70.5281 8.24404L70.5192 8.24389C66.7702 8.24397 63.5859 8.58248 61.0001 11.0473C58.7259 13.1636 57.9721 15.1333 57.6677 16.8516C57.5569 17.4772 57.5051 18.0779 57.4591 18.6119C57.4437 18.7909 57.4289 18.9623 57.4127 19.1247C57.3463 19.7931 57.2568 20.3164 57.0456 20.75C56.7074 21.4062 56.2572 21.9997 55.7149 22.5042L55.7108 22.508L18.7378 57.645C18.6638 57.7164 18.5753 57.7711 18.4782 57.8054C17.207 58.2132 16.2071 58.2285 15.2375 58.2434C14.9432 58.2479 14.6517 58.2523 14.3563 58.2677C13.7294 58.3004 13.0952 58.3866 12.4449 58.6622C11.7925 58.9388 11.1575 59.3915 10.4993 60.112L10.4869 60.1255L10.4755 60.1398C8.70639 62.3707 7.83391 65.1706 8.02616 68L9.07942 67.9299C8.90508 65.364 9.69403 62.8249 11.2946 60.7993C11.8659 60.1769 12.3768 59.8278 12.8605 59.6227C13.3499 59.4153 13.8451 59.3406 14.4117 59.3111C14.6521 59.2986 14.9077 59.295 15.1792 59.2912C16.1691 59.2773 17.3699 59.2604 18.8106 58.7971L18.8215 58.7936C19.066 58.7091 19.2886 58.5726 19.474 58.3939C19.4742 58.3937 19.4738 58.3941 19.474 58.3939L56.4379 23.2656C56.4387 23.2648 56.4394 23.2641 56.4402 23.2634C57.0717 22.6754 57.5955 21.9839 57.9888 21.2192L57.9935 21.2101C58.2942 20.596 58.3954 19.9097 58.4633 19.227C58.4819 19.0397 58.4981 18.8525 58.5144 18.6639C58.5595 18.1412 58.6055 17.6079 58.7075 17.032C58.9765 15.5132 59.6316 13.7541 61.7255 11.8064L61.7303 11.8019C63.9939 9.64275 66.7944 9.2891 70.5147 9.28881C73.0845 9.33195 76.0691 9.41814 79.6216 9.54748L146.819 14.8868C146.819 14.8868 146.818 14.8867 146.819 14.8868C148.189 15.0005 149.57 14.8227 150.865 14.3652C152.161 13.9077 153.342 13.1812 154.33 12.2345Z" fill="#EB5757"/>
<path fill-rule="evenodd" clip-rule="evenodd" d="M71.0645 25.6128C72.0403 25.6128 72.8311 26.3955 72.8311 27.3606C72.8311 28.3258 72.0403 29.1084 71.0645 29.1084C70.0888 29.1084 69.2981 28.3258 69.2981 27.3606C69.2981 26.3955 70.0888 25.6128 71.0645 25.6128ZM73.8867 27.3606C73.8867 25.8181 72.623 24.568 71.0645 24.568C69.5061 24.568 68.2425 25.8182 68.2425 27.3606C68.2425 28.9031 69.5061 30.1533 71.0645 30.1533C72.623 30.1533 73.8867 28.9031 73.8867 27.3606Z" fill="#EB5757"/>
<path fill-rule="evenodd" clip-rule="evenodd" d="M69.9944 37.6554C70.9701 37.6554 71.7608 38.438 71.7608 39.4032C71.7608 40.3683 70.9701 41.151 69.9944 41.151C69.0188 41.151 68.228 40.3683 68.228 39.4032C68.228 38.438 69.0188 37.6554 69.9944 37.6554ZM72.8164 39.4032C72.8164 37.8607 71.5529 36.6105 69.9944 36.6105C68.4359 36.6105 67.1724 37.8607 67.1724 39.4032C67.1724 40.9456 68.4359 42.1958 69.9944 42.1958C71.5529 42.1958 72.8164 40.9456 72.8164 39.4032Z" fill="#EB5757"/>
<path fill-rule="evenodd" clip-rule="evenodd" d="M81.3126 32.6612C82.2883 32.6612 83.0791 33.4438 83.0791 34.409C83.0791 35.3741 82.2883 36.1568 81.3126 36.1568C80.337 36.1568 79.5462 35.3741 79.5462 34.409C79.5462 33.4438 80.337 32.6612 81.3126 32.6612ZM84.1348 34.409C84.1348 32.8665 82.871 31.6163 81.3126 31.6163C79.7542 31.6163 78.4906 32.8665 78.4906 34.409C78.4906 35.9514 79.7542 37.2016 81.3126 37.2016C82.871 37.2016 84.1348 35.9514 84.1348 34.409Z" fill="#EB5757"/>
</g>
<defs>
<filter id="filter0_f_741_2422" x="0" y="0" width="166" height="76" filterUnits="userSpaceOnUse" color-interpolation-filters="sRGB">
<feFlood flood-opacity="0" result="BackgroundImageFix"/>
<feBlend mode="normal" in="SourceGraphic" in2="BackgroundImageFix" result="shape"/>
<feGaussianBlur stdDeviation="4" result="effect1_foregroundBlur_741_2422"/>
</filter>
</defs>
</svg>
