<svg width="105" height="100" viewBox="0 0 105 100" fill="none" xmlns="http://www.w3.org/2000/svg">
<path fill-rule="evenodd" clip-rule="evenodd" d="M104.546 4.65192L101.599 2.37482V0.00102299H104.546V0H105V44.3299L68.6155 63.9379L63.0667 79.5L59.9255 81.3795C59.776 81.7436 59.4179 82 59 82C58.9653 82 58.931 81.9982 58.8972 81.9948L29.0146 99.8748L23 99.8752V100H22H20H19V99.8754L17 99.8755V100H16V99.8756L15 99.8757V100H14V99.8757L13.093 99.8758V99.5H14V99H15V99.5H16V99H17V99.5H19V99V95V94H20H22H23V95V99V99.5H28.5L58.1873 81.5827C58.0694 81.4187 58 81.2174 58 81C58 80.4477 58.4477 80 59 80C59.3914 80 59.7302 80.2248 59.8945 80.5524L62.7606 78.8226L68.3128 63.2499L104.546 43.7232V4.65192ZM102.167 10.8C101.94 10.8 101.8 10.6429 101.8 10.5C101.8 10.3571 101.94 10.2 102.167 10.2C102.393 10.2 102.533 10.3571 102.533 10.5C102.533 10.6429 102.393 10.8 102.167 10.8ZM102.167 11C101.854 11 101.6 10.7761 101.6 10.5C101.6 10.2239 101.854 10 102.167 10C102.48 10 102.733 10.2239 102.733 10.5C102.733 10.7761 102.48 11 102.167 11ZM101.8 13.5C101.8 13.6429 101.94 13.8 102.167 13.8C102.393 13.8 102.533 13.6429 102.533 13.5C102.533 13.3571 102.393 13.2 102.167 13.2C101.94 13.2 101.8 13.3571 101.8 13.5ZM101.6 13.5C101.6 13.7761 101.854 14 102.167 14C102.48 14 102.733 13.7761 102.733 13.5C102.733 13.2239 102.48 13 102.167 13C101.854 13 101.6 13.2239 101.6 13.5ZM66.4667 66H65.2462L64.2 69H65.4205L66.4667 66ZM22 99V95H20V99H22ZM22 93H23V92H22H20H19V93H20H22ZM23 91H22H20H19V90H20H22H23V91ZM22 81H23V80H22H20H19V81H20H22ZM76 68C75.4477 68 75 67.5523 75 67C75 66.4477 75.4477 66 76 66C76.5523 66 77 66.4477 77 67C77 67.5523 76.5523 68 76 68ZM41.3172 95.9463L38.1797 96.0266L34.1933 98.7031L37.3308 98.6228L41.3172 95.9463ZM38.1165 95.8281L33.8203 98.7126L33.5105 98.9206L33.8835 98.9111L37.394 98.8213L41.6902 95.9368L42 95.7288L41.627 95.7383L38.1165 95.8281ZM102.2 38.0829L102.8 37.4829L102.8 42.3991L102.2 42.8422L102.2 38.0829ZM102 42.9899L102 38L102.8 37.2L103 37L103 37.2829L103 42.5L102.2 43.0909L102 43.2386L102 42.9899ZM11.8 58.9621C11.8 52.2975 6.70645 46.8225 0.199997 46.2176V56.0214C1.78194 56.2405 3 57.5983 3 59.2405C3 60.8828 1.78194 62.2405 0.199997 62.4596V71.7066C6.70645 71.1018 11.8 65.6267 11.8 58.9621ZM0 62.4811V56V46.2006V46C0.0668106 46.0051 0.133476 46.0107 0.199997 46.0168C6.81718 46.6224 12 52.187 12 58.9621C12 65.7372 6.81718 71.3018 0.199997 71.9075C0.170219 71.9102 0.140411 71.9128 0.110573 71.9153L0.0776749 71.9181L0.0723877 71.9185L0.0319366 71.9218L0 71.9242V71.7236V62.4811ZM21 86C20.4477 86 20 85.5523 20 85C20 84.4477 20.4477 84 21 84C21.5523 84 22 84.4477 22 85C22 85.5523 21.5523 86 21 86Z" fill="url(#paint0_linear_9_292)"/>
<defs>
<linearGradient id="paint0_linear_9_292" x1="105" y1="0" x2="-24" y2="100" gradientUnits="userSpaceOnUse">
<stop stop-color="#FF3434"/>
<stop offset="0.0915471" stop-color="#7D19FE" stop-opacity="0.490266"/>
<stop offset="0.269692" stop-color="#FD0505" stop-opacity="0.13"/>
<stop offset="0.39116" stop-color="#FF3434"/>
<stop offset="0.515639" stop-color="#FF7C7C" stop-opacity="0.391122"/>
<stop offset="0.647055" stop-color="#FE2121" stop-opacity="0"/>
<stop offset="0.75779" stop-color="#FF3434" stop-opacity="0.89"/>
<stop offset="1" stop-color="#FF3434" stop-opacity="0.37"/>
</linearGradient>
</defs>
</svg>
