<svg width="402" height="72" viewBox="0 0 402 72" fill="none" xmlns="http://www.w3.org/2000/svg">
<path fill-rule="evenodd" clip-rule="evenodd" d="M366.787 64.8274C351.172 63.6842 333.735 62.4147 324.818 61.911C322.995 61.8095 321.211 61.3489 319.568 60.5556C317.925 59.7624 316.455 58.6523 315.243 57.2893C315.243 57.2892 315.244 57.2894 315.243 57.2893L281.172 18.9201C280.39 18.0416 279.431 17.3382 278.358 16.8569C277.285 16.3756 276.121 16.1271 274.945 16.1275C274.945 16.1275 274.945 16.1275 274.945 16.1275H214.188V17.1275H274.945C275.98 17.1271 277.004 17.3459 277.949 17.7694C278.893 18.1929 279.737 18.8115 280.424 19.5844L314.496 57.9533C315.795 59.415 317.371 60.6056 319.133 61.4562C320.895 62.3067 322.808 62.8007 324.762 62.9095C333.669 63.4125 351.095 64.6812 366.714 65.8247L369.259 66.0111C383.789 67.0752 396.236 67.9868 397.821 67.9868V66.9868C396.275 66.9868 383.777 66.0716 369.128 64.9988L366.787 64.8274Z" fill="#EB5757"/>
<path fill-rule="evenodd" clip-rule="evenodd" d="M35.1013 65.8247C50.7173 64.6812 68.1407 63.4125 77.0468 62.9094C79.0004 62.8006 80.913 62.3067 82.6747 61.4562C84.4364 60.6056 86.0123 59.4152 87.3115 57.9535L121.395 19.5847C122.083 18.8124 122.927 18.1941 123.871 17.7706C124.815 17.3472 125.838 17.128 126.873 17.1275C126.874 17.1275 126.873 17.1275 126.873 17.1275H187.634V16.1275H126.873C125.697 16.128 124.535 16.377 123.462 16.8582C122.389 17.3394 121.43 18.0418 120.648 18.9195L86.5641 57.2891C86.564 57.2892 86.5641 57.2891 86.5641 57.2891C85.3525 58.6522 83.8829 59.7624 82.2399 60.5556C80.5969 61.3489 78.8129 61.8095 76.9908 61.911C68.0742 62.4146 50.6399 63.6842 35.0283 64.8274C34.2414 64.885 33.4593 64.9423 32.6832 64.9991C18.0384 66.0718 5.54575 66.9868 4 66.9868V67.9868C5.58432 67.9868 18.0271 67.0754 32.5517 66.0114C33.3951 65.9497 34.2456 65.8874 35.1013 65.8247Z" fill="#EB5757"/>
<path fill-rule="evenodd" clip-rule="evenodd" d="M152.892 35.1661C151.987 35.1661 151.254 34.433 151.254 33.5289C151.254 32.6248 151.987 31.8916 152.892 31.8916C153.796 31.8916 154.529 32.6248 154.529 33.5289C154.529 34.433 153.796 35.1661 152.892 35.1661ZM150.254 33.5289C150.254 34.9855 151.435 36.1661 152.892 36.1661C154.348 36.1661 155.529 34.9855 155.529 33.5289C155.529 32.0723 154.348 30.8916 152.892 30.8916C151.435 30.8916 150.254 32.0723 150.254 33.5289Z" fill="#EB5757"/>
<path fill-rule="evenodd" clip-rule="evenodd" d="M144.927 35.1661C144.022 35.1661 143.289 34.433 143.289 33.5289C143.289 32.6248 144.022 31.8916 144.927 31.8916C145.831 31.8916 146.565 32.6248 146.565 33.5289C146.565 34.433 145.831 35.1661 144.927 35.1661ZM142.289 33.5289C142.289 34.9855 143.47 36.1661 144.927 36.1661C146.384 36.1661 147.565 34.9855 147.565 33.5289C147.565 32.0723 146.384 30.8916 144.927 30.8916C143.47 30.8916 142.289 32.0723 142.289 33.5289Z" fill="#EB5757"/>
<path fill-rule="evenodd" clip-rule="evenodd" d="M136.96 35.1661C136.055 35.1661 135.322 34.433 135.322 33.5289C135.322 32.6248 136.055 31.8916 136.96 31.8916C137.865 31.8916 138.598 32.6248 138.598 33.5289C138.598 34.433 137.865 35.1661 136.96 35.1661ZM134.322 33.5289C134.322 34.9855 135.503 36.1661 136.96 36.1661C138.417 36.1661 139.598 34.9855 139.598 33.5289C139.598 32.0723 138.417 30.8916 136.96 30.8916C135.503 30.8916 134.322 32.0723 134.322 33.5289Z" fill="#EB5757"/>
<path fill-rule="evenodd" clip-rule="evenodd" d="M148.601 28.6079C147.696 28.6079 146.963 27.8748 146.963 26.9707C146.963 26.0666 147.696 25.3334 148.601 25.3334C149.505 25.3334 150.239 26.0666 150.239 26.9707C150.239 27.8748 149.505 28.6079 148.601 28.6079ZM145.963 26.9707C145.963 28.4273 147.144 29.6079 148.601 29.6079C150.057 29.6079 151.239 28.4273 151.239 26.9707C151.239 25.514 150.057 24.3334 148.601 24.3334C147.144 24.3334 145.963 25.514 145.963 26.9707Z" fill="#EB5757"/>
<path fill-rule="evenodd" clip-rule="evenodd" d="M140.636 28.6079C139.731 28.6079 138.998 27.8748 138.998 26.9707C138.998 26.0665 139.731 25.3334 140.636 25.3334C141.54 25.3334 142.274 26.0665 142.274 26.9707C142.274 27.8748 141.54 28.6079 140.636 28.6079ZM137.998 26.9707C137.998 28.4273 139.179 29.6079 140.636 29.6079C142.093 29.6079 143.274 28.4273 143.274 26.9707C143.274 25.514 142.093 24.3334 140.636 24.3334C139.179 24.3334 137.998 25.514 137.998 26.9707Z" fill="#EB5757"/>
<path fill-rule="evenodd" clip-rule="evenodd" d="M249.136 35.1661C248.231 35.1661 247.498 34.433 247.498 33.5289C247.498 32.6248 248.231 31.8916 249.136 31.8916C250.04 31.8916 250.774 32.6248 250.774 33.5289C250.774 34.433 250.04 35.1661 249.136 35.1661ZM246.498 33.5289C246.498 34.9855 247.679 36.1661 249.136 36.1661C250.593 36.1661 251.774 34.9855 251.774 33.5289C251.774 32.0723 250.593 30.8916 249.136 30.8916C247.679 30.8916 246.498 32.0723 246.498 33.5289Z" fill="#EB5757"/>
<path fill-rule="evenodd" clip-rule="evenodd" d="M257.101 35.1661C256.196 35.1661 255.463 34.433 255.463 33.5289C255.463 32.6248 256.196 31.8916 257.101 31.8916C258.005 31.8916 258.738 32.6248 258.738 33.5289C258.738 34.433 258.005 35.1661 257.101 35.1661ZM254.463 33.5289C254.463 34.9855 255.644 36.1661 257.101 36.1661C258.557 36.1661 259.738 34.9855 259.738 33.5289C259.738 32.0723 258.557 30.8916 257.101 30.8916C255.644 30.8916 254.463 32.0723 254.463 33.5289Z" fill="#EB5757"/>
<path fill-rule="evenodd" clip-rule="evenodd" d="M265.066 35.1661C264.161 35.1661 263.428 34.433 263.428 33.5289C263.428 32.6248 264.161 31.8916 265.066 31.8916C265.97 31.8916 266.703 32.6248 266.703 33.5289C266.703 34.433 265.97 35.1661 265.066 35.1661ZM262.428 33.5289C262.428 34.9855 263.609 36.1661 265.066 36.1661C266.522 36.1661 267.703 34.9855 267.703 33.5289C267.703 32.0723 266.522 30.8916 265.066 30.8916C263.609 30.8916 262.428 32.0722 262.428 33.5289Z" fill="#EB5757"/>
<path fill-rule="evenodd" clip-rule="evenodd" d="M253.427 28.6079C252.522 28.6079 251.789 27.8748 251.789 26.9707C251.789 26.0665 252.522 25.3334 253.427 25.3334C254.331 25.3334 255.065 26.0665 255.065 26.9707C255.065 27.8748 254.331 28.6079 253.427 28.6079ZM250.789 26.9707C250.789 28.4273 251.97 29.6079 253.427 29.6079C254.884 29.6079 256.065 28.4273 256.065 26.9707C256.065 25.514 254.884 24.3334 253.427 24.3334C251.97 24.3334 250.789 25.514 250.789 26.9707Z" fill="#EB5757"/>
<path fill-rule="evenodd" clip-rule="evenodd" d="M261.392 28.6079C260.487 28.6079 259.754 27.8748 259.754 26.9707C259.754 26.0665 260.487 25.3334 261.392 25.3334C262.296 25.3334 263.029 26.0665 263.029 26.9707C263.029 27.8748 262.296 28.6079 261.392 28.6079ZM258.754 26.9707C258.754 28.4273 259.935 29.6079 261.392 29.6079C262.848 29.6079 264.029 28.4273 264.029 26.9707C264.029 25.514 262.848 24.3334 261.392 24.3334C259.935 24.3334 258.754 25.514 258.754 26.9707Z" fill="#EB5757"/>
<path fill-rule="evenodd" clip-rule="evenodd" d="M201.022 21.5667C197.877 21.5667 195.328 19.018 195.328 15.8744C195.328 12.7308 197.877 10.1822 201.022 10.1822C204.166 10.1822 206.716 12.7308 206.716 15.8744C206.716 19.018 204.166 21.5667 201.022 21.5667ZM194.328 15.8744C194.328 19.5706 197.325 22.5667 201.022 22.5667C204.719 22.5667 207.716 19.5706 207.716 15.8744C207.716 12.1783 204.719 9.18224 201.022 9.18224C197.325 9.18224 194.328 12.1783 194.328 15.8744Z" fill="#EB5757"/>
<path fill-rule="evenodd" clip-rule="evenodd" d="M201.021 27.4221C194.827 27.4221 189.807 22.4027 189.807 16.2111C189.807 10.0195 194.827 5.00008 201.021 5.00008C207.214 5.00008 212.234 10.0195 212.234 16.2111C212.234 22.4027 207.214 27.4221 201.021 27.4221ZM188.807 16.2111C188.807 22.9552 194.275 28.4221 201.021 28.4221C207.766 28.4221 213.234 22.9552 213.234 16.2111C213.234 9.46702 207.766 4.00008 201.021 4.00008C194.275 4.00008 188.807 9.46702 188.807 16.2111Z" fill="#EB5757"/>
<g filter="url(#filter0_f_741_2423)">
<path fill-rule="evenodd" clip-rule="evenodd" d="M366.787 64.8406C351.172 63.6974 333.735 62.4279 324.818 61.9242C322.995 61.8227 321.211 61.3621 319.568 60.5688C317.925 59.7756 316.455 58.6655 315.243 57.3025C315.243 57.3024 315.244 57.3025 315.243 57.3025L281.172 18.9333C280.39 18.0548 279.431 17.3514 278.358 16.8701C277.285 16.3888 276.121 16.1403 274.945 16.1407C274.945 16.1407 274.945 16.1407 274.945 16.1407H214.188V17.1407H274.945C275.98 17.1403 277.004 17.359 277.949 17.7825C278.893 18.206 279.737 18.8247 280.424 19.5976L314.496 57.9665C315.795 59.4282 317.371 60.6188 319.133 61.4694C320.895 62.3199 322.808 62.8138 324.762 62.9226C333.669 63.4257 351.095 64.6944 366.714 65.8379L369.259 66.0243C383.789 67.0884 396.236 68 397.821 68V67C396.275 67 383.777 66.0848 369.128 65.012L366.787 64.8406Z" fill="#EB5757"/>
<path fill-rule="evenodd" clip-rule="evenodd" d="M35.1013 65.8379C50.7173 64.6944 68.1407 63.4257 77.0468 62.9226C79.0004 62.8138 80.913 62.3199 82.6747 61.4694C84.4364 60.6188 86.0123 59.4284 87.3115 57.9666L121.395 19.5979C122.083 18.8255 122.927 18.2073 123.871 17.7838C124.815 17.3603 125.838 17.1412 126.873 17.1407C126.874 17.1407 126.873 17.1407 126.873 17.1407H187.634V16.1407H126.873C125.697 16.1412 124.535 16.3902 123.462 16.8714C122.389 17.3525 121.43 18.055 120.648 18.9326L86.5641 57.3023C86.564 57.3023 86.5641 57.3023 86.5641 57.3023C85.3525 58.6654 83.8829 59.7756 82.2399 60.5688C80.5969 61.3621 78.8129 61.8227 76.9908 61.9242C68.0742 62.4278 50.6399 63.6974 35.0283 64.8406C34.2414 64.8982 33.4593 64.9555 32.6832 65.0123C18.0384 66.085 5.54575 67 4 67V68C5.58432 68 18.0271 67.0886 32.5517 66.0246C33.3951 65.9628 34.2456 65.9005 35.1013 65.8379Z" fill="#EB5757"/>
<path fill-rule="evenodd" clip-rule="evenodd" d="M152.892 35.1793C151.987 35.1793 151.254 34.4462 151.254 33.5421C151.254 32.6379 151.987 31.9048 152.892 31.9048C153.796 31.9048 154.529 32.638 154.529 33.5421C154.529 34.4462 153.796 35.1793 152.892 35.1793ZM150.254 33.5421C150.254 34.9987 151.435 36.1793 152.892 36.1793C154.348 36.1793 155.529 34.9987 155.529 33.5421C155.529 32.0854 154.348 30.9048 152.892 30.9048C151.435 30.9048 150.254 32.0854 150.254 33.5421Z" fill="#EB5757"/>
<path fill-rule="evenodd" clip-rule="evenodd" d="M144.927 35.1793C144.022 35.1793 143.289 34.4462 143.289 33.5421C143.289 32.638 144.022 31.9048 144.927 31.9048C145.831 31.9048 146.565 32.6379 146.565 33.5421C146.565 34.4462 145.831 35.1793 144.927 35.1793ZM142.289 33.5421C142.289 34.9987 143.47 36.1793 144.927 36.1793C146.384 36.1793 147.565 34.9987 147.565 33.5421C147.565 32.0854 146.384 30.9048 144.927 30.9048C143.47 30.9048 142.289 32.0854 142.289 33.5421Z" fill="#EB5757"/>
<path fill-rule="evenodd" clip-rule="evenodd" d="M136.96 35.1793C136.055 35.1793 135.322 34.4462 135.322 33.5421C135.322 32.638 136.055 31.9048 136.96 31.9048C137.865 31.9048 138.598 32.6379 138.598 33.5421C138.598 34.4462 137.865 35.1793 136.96 35.1793ZM134.322 33.5421C134.322 34.9987 135.503 36.1793 136.96 36.1793C138.417 36.1793 139.598 34.9987 139.598 33.5421C139.598 32.0854 138.417 30.9048 136.96 30.9048C135.503 30.9048 134.322 32.0854 134.322 33.5421Z" fill="#EB5757"/>
<path fill-rule="evenodd" clip-rule="evenodd" d="M148.601 28.6211C147.696 28.6211 146.963 27.8879 146.963 26.9838C146.963 26.0797 147.696 25.3466 148.601 25.3466C149.505 25.3466 150.239 26.0797 150.239 26.9838C150.239 27.8879 149.505 28.6211 148.601 28.6211ZM145.963 26.9838C145.963 28.4405 147.144 29.6211 148.601 29.6211C150.057 29.6211 151.239 28.4405 151.239 26.9838C151.239 25.5272 150.057 24.3466 148.601 24.3466C147.144 24.3466 145.963 25.5272 145.963 26.9838Z" fill="#EB5757"/>
<path fill-rule="evenodd" clip-rule="evenodd" d="M140.636 28.6211C139.731 28.6211 138.998 27.888 138.998 26.9838C138.998 26.0797 139.731 25.3466 140.636 25.3466C141.54 25.3466 142.274 26.0797 142.274 26.9838C142.274 27.888 141.54 28.6211 140.636 28.6211ZM137.998 26.9838C137.998 28.4405 139.179 29.6211 140.636 29.6211C142.093 29.6211 143.274 28.4405 143.274 26.9838C143.274 25.5272 142.093 24.3466 140.636 24.3466C139.179 24.3466 137.998 25.5272 137.998 26.9838Z" fill="#EB5757"/>
<path fill-rule="evenodd" clip-rule="evenodd" d="M249.136 35.1793C248.231 35.1793 247.498 34.4462 247.498 33.5421C247.498 32.6379 248.231 31.9048 249.136 31.9048C250.04 31.9048 250.774 32.6379 250.774 33.5421C250.774 34.4462 250.04 35.1793 249.136 35.1793ZM246.498 33.5421C246.498 34.9987 247.679 36.1793 249.136 36.1793C250.593 36.1793 251.774 34.9987 251.774 33.5421C251.774 32.0854 250.593 30.9048 249.136 30.9048C247.679 30.9048 246.498 32.0854 246.498 33.5421Z" fill="#EB5757"/>
<path fill-rule="evenodd" clip-rule="evenodd" d="M257.101 35.1793C256.196 35.1793 255.463 34.4462 255.463 33.5421C255.463 32.6379 256.196 31.9048 257.101 31.9048C258.005 31.9048 258.738 32.6379 258.738 33.5421C258.738 34.4462 258.005 35.1793 257.101 35.1793ZM254.463 33.5421C254.463 34.9987 255.644 36.1793 257.101 36.1793C258.557 36.1793 259.738 34.9987 259.738 33.5421C259.738 32.0854 258.557 30.9048 257.101 30.9048C255.644 30.9048 254.463 32.0854 254.463 33.5421Z" fill="#EB5757"/>
<path fill-rule="evenodd" clip-rule="evenodd" d="M265.066 35.1793C264.161 35.1793 263.428 34.4462 263.428 33.5421C263.428 32.638 264.161 31.9048 265.066 31.9048C265.97 31.9048 266.703 32.6379 266.703 33.5421C266.703 34.4462 265.97 35.1793 265.066 35.1793ZM262.428 33.5421C262.428 34.9987 263.609 36.1793 265.066 36.1793C266.522 36.1793 267.703 34.9987 267.703 33.5421C267.703 32.0854 266.522 30.9048 265.066 30.9048C263.609 30.9048 262.428 32.0854 262.428 33.5421Z" fill="#EB5757"/>
<path fill-rule="evenodd" clip-rule="evenodd" d="M253.427 28.6211C252.522 28.6211 251.789 27.888 251.789 26.9838C251.789 26.0797 252.522 25.3466 253.427 25.3466C254.331 25.3466 255.065 26.0797 255.065 26.9838C255.065 27.888 254.331 28.6211 253.427 28.6211ZM250.789 26.9838C250.789 28.4405 251.97 29.6211 253.427 29.6211C254.884 29.6211 256.065 28.4405 256.065 26.9838C256.065 25.5272 254.884 24.3466 253.427 24.3466C251.97 24.3466 250.789 25.5272 250.789 26.9838Z" fill="#EB5757"/>
<path fill-rule="evenodd" clip-rule="evenodd" d="M261.392 28.6211C260.487 28.6211 259.754 27.888 259.754 26.9838C259.754 26.0797 260.487 25.3466 261.392 25.3466C262.296 25.3466 263.029 26.0797 263.029 26.9838C263.029 27.888 262.296 28.6211 261.392 28.6211ZM258.754 26.9838C258.754 28.4405 259.935 29.6211 261.392 29.6211C262.848 29.6211 264.029 28.4405 264.029 26.9838C264.029 25.5272 262.848 24.3466 261.392 24.3466C259.935 24.3466 258.754 25.5272 258.754 26.9838Z" fill="#EB5757"/>
<path fill-rule="evenodd" clip-rule="evenodd" d="M201.022 21.5798C197.877 21.5798 195.328 19.0312 195.328 15.8876C195.328 12.744 197.877 10.1954 201.022 10.1954C204.166 10.1954 206.716 12.744 206.716 15.8876C206.716 19.0312 204.166 21.5798 201.022 21.5798ZM194.328 15.8876C194.328 19.5837 197.325 22.5798 201.022 22.5798C204.719 22.5798 207.716 19.5837 207.716 15.8876C207.716 12.1915 204.719 9.19543 201.022 9.19543C197.325 9.19543 194.328 12.1915 194.328 15.8876Z" fill="#EB5757"/>
<path fill-rule="evenodd" clip-rule="evenodd" d="M201.021 27.4353C194.827 27.4353 189.807 22.4158 189.807 16.2243C189.807 10.0327 194.827 5.01326 201.021 5.01326C207.214 5.01326 212.234 10.0327 212.234 16.2243C212.234 22.4158 207.214 27.4353 201.021 27.4353ZM188.807 16.2243C188.807 22.9684 194.275 28.4353 201.021 28.4353C207.766 28.4353 213.234 22.9684 213.234 16.2243C213.234 9.4802 207.766 4.01326 201.021 4.01326C194.275 4.01326 188.807 9.4802 188.807 16.2243Z" fill="#EB5757"/>
</g>
<defs>
<filter id="filter0_f_741_2423" x="0" y="0.0133057" width="401.82" height="71.9867" filterUnits="userSpaceOnUse" color-interpolation-filters="sRGB">
<feFlood flood-opacity="0" result="BackgroundImageFix"/>
<feBlend mode="normal" in="SourceGraphic" in2="BackgroundImageFix" result="shape"/>
<feGaussianBlur stdDeviation="2" result="effect1_foregroundBlur_741_2423"/>
</filter>
</defs>
</svg>
